<?xml version="1.0" standalone="no"?>
<!DOCTYPE svg PUBLIC "-//W3C//DTD SVG 20010904//EN"
 "http://www.w3.org/TR/2001/REC-SVG-20010904/DTD/svg10.dtd">
<svg version="1.0" xmlns="http://www.w3.org/2000/svg"
 width="920.000000pt" height="400.000000pt" viewBox="0 0 920.000000 400.000000"
 preserveAspectRatio="xMidYMid meet">

<g transform="translate(0.000000,400.000000) scale(0.100000,-0.100000)"
fill="#000000" stroke="none">
<path d="M4445 3808 c-288 -29 -613 -149 -841 -311 -106 -75 -277 -236 -355
-334 -198 -249 -341 -600 -364 -898 -3 -44 -8 -97 -11 -117 l-6 -38 -599 0
c-329 0 -599 -2 -599 -5 0 -3 70 -102 156 -221 l156 -215 -18 -27 c-10 -15
-80 -116 -156 -225 -76 -109 -138 -200 -138 -203 0 -2 231 -4 514 -4 482 0
515 -1 519 -17 3 -10 5 52 6 138 l1 157 97 108 c53 60 100 111 105 112 4 2 8
-4 8 -14 0 -9 -26 -46 -57 -82 -32 -36 -73 -82 -91 -103 l-33 -39 27 -10 c64
-25 275 -82 281 -76 3 3 2 11 -4 18 -13 18 -58 140 -82 223 -102 356 -88 708
41 1060 50 137 89 215 165 330 241 365 602 625 1010 726 170 41 279 52 481 47
262 -8 473 -58 684 -164 453 -226 762 -599 903 -1089 39 -135 55 -263 55 -431
0 -239 -41 -456 -123 -651 l-35 -83 26 7 c52 12 277 85 284 92 4 3 -33 50 -82
104 -59 63 -90 105 -90 120 1 24 -6 31 143 -135 l67 -75 0 -137 0 -136 520 0
519 0 -159 217 -160 216 54 76 c29 42 101 147 160 234 l107 157 -600 0 -600 0
-5 43 c-3 23 -13 96 -21 163 -17 139 -51 278 -95 388 -245 618 -775 1023
-1441 1100 -146 17 -189 18 -324 4z"/>
<path d="M4349 3745 c-180 -29 -334 -78 -484 -152 -508 -254 -851 -728 -925
-1282 -14 -104 -14 -341 -1 -437 21 -144 73 -327 130 -457 21 -48 24 -51 73
-61 l27 -6 -35 75 c-45 98 -89 232 -116 358 -19 87 -22 132 -22 312 0 191 2
220 26 325 78 336 204 567 443 806 328 329 737 490 1199 471 169 -7 297 -30
453 -82 502 -167 905 -599 1038 -1112 95 -363 62 -744 -94 -1086 -17 -38 -31
-70 -31 -72 0 -2 16 2 36 8 28 8 41 21 59 56 35 71 92 245 115 356 28 132 37
378 20 522 -82 712 -614 1289 -1327 1444 -128 27 -454 35 -584 14z"/>
<path d="M4445 3644 c-400 -57 -687 -195 -946 -453 -224 -225 -366 -487 -431
-799 -33 -154 -32 -449 1 -602 42 -195 144 -450 183 -458 11 -2 4 20 -29 82
-57 111 -117 294 -138 426 -22 135 -22 382 0 505 61 351 235 663 495 892 475
418 1143 506 1705 226 416 -208 718 -598 816 -1051 26 -124 37 -403 20 -523
-26 -175 -84 -360 -159 -503 -36 -69 -36 -67 -17 -60 23 9 90 147 130 267 121
364 108 757 -37 1100 -203 478 -627 825 -1137 928 -93 19 -383 34 -456 23z"/>
<path d="M4509 3347 c-32 -21 -49 -46 -65 -92 -5 -16 -7 -17 -11 -5 -10 28
-56 69 -89 80 -91 30 -205 -73 -179 -162 6 -22 5 -22 -17 4 -31 36 -59 48
-109 48 -96 0 -169 -104 -128 -182 6 -11 7 -18 2 -16 -72 36 -84 38 -126 27
-48 -12 -73 -32 -94 -73 -20 -38 -13 -119 13 -148 19 -21 19 -21 -1 -13 -60
27 -133 3 -178 -57 -30 -41 -25 -112 11 -157 l30 -37 -28 4 c-32 5 -75 -16
-109 -52 -55 -58 -31 -183 39 -209 35 -13 39 -27 9 -27 -51 0 -119 -78 -119
-136 1 -61 64 -134 117 -134 14 0 10 -7 -15 -26 -18 -14 -39 -39 -47 -54 -45
-87 15 -198 109 -203 20 -1 36 -3 36 -4 0 -1 -11 -14 -25 -29 -48 -52 -45
-131 9 -183 50 -49 122 -61 165 -27 7 6 4 -5 -8 -24 -38 -63 -18 -166 38 -194
44 -23 114 -29 136 -12 27 21 34 20 28 -4 -5 -17 0 -20 29 -20 18 0 103 -4
188 -10 307 -19 835 -17 1067 5 72 7 74 8 69 30 l-6 23 38 -20 c41 -21 100
-18 140 8 56 37 78 119 47 178 -8 15 -15 29 -15 31 0 1 18 -3 40 -8 34 -10 46
-8 86 11 85 42 106 145 43 216 l-28 32 33 1 c46 1 93 28 117 66 16 25 19 44
16 87 -4 49 -8 58 -47 92 -40 36 -41 38 -18 38 33 0 77 36 94 76 38 90 -6 174
-101 194 l-29 6 36 21 c103 61 85 216 -29 254 -19 6 -46 8 -61 5 -26 -6 -26
-6 -8 9 74 57 74 166 0 224 -33 26 -89 37 -120 22 -28 -13 -29 -10 -8 31 26
50 14 113 -29 156 -29 28 -45 36 -87 40 -42 4 -57 1 -80 -17 -31 -23 -52 -29
-32 -9 17 17 15 93 -3 129 -38 72 -147 93 -208 40 l-33 -29 -1 39 c-3 76 -64
129 -149 129 -43 0 -51 -4 -91 -45 -31 -33 -43 -40 -43 -28 0 31 -36 79 -73
96 -49 23 -98 21 -138 -6z m226 -361 c71 -30 139 -114 169 -208 4 -14 16 -18
49 -18 100 0 204 -66 255 -164 37 -70 38 -188 3 -256 -52 -101 -135 -159 -238
-168 l-63 -5 0 -158 0 -158 -305 -3 -305 -3 0 176 0 176 -57 6 c-98 9 -170 43
-239 111 -70 70 -97 134 -97 229 0 121 98 247 230 297 47 18 74 21 144 18 l85
-3 27 37 c71 100 226 142 342 94z m400 -1125 c-6 -4 -58 -25 -117 -46 -60 -21
-108 -42 -108 -46 0 -13 8 -12 129 27 62 19 115 33 117 31 3 -3 -47 -24 -111
-47 -107 -39 -146 -60 -113 -60 8 0 61 16 118 35 57 19 108 35 114 35 25 0
-17 -20 -116 -54 -60 -21 -108 -42 -108 -47 0 -13 0 -13 126 27 64 20 117 34
120 31 3 -2 -49 -24 -115 -47 -67 -24 -121 -47 -121 -51 0 -15 15 -11 131 32
61 22 113 39 115 36 7 -7 -175 -85 -223 -95 -43 -10 -106 -2 -143 18 -12 6
-34 3 -74 -13 -58 -23 -71 -37 -35 -37 23 0 269 -61 373 -92 82 -25 112 -49
96 -78 -6 -11 -21 -20 -33 -20 -27 0 -213 52 -414 116 l-143 46 -202 -80
c-339 -133 -378 -142 -386 -83 -4 27 21 38 280 122 109 35 198 67 198 70 0 3
-23 13 -52 22 -51 16 -52 16 -82 -7 -35 -26 -88 -46 -123 -46 -62 0 -181 89
-209 157 -26 60 16 96 128 109 106 12 186 -27 224 -111 l24 -52 99 -21 99 -21
94 30 c56 19 100 40 110 53 9 11 27 34 39 50 28 35 65 52 194 87 119 33 111
31 100 20z"/>
<path d="M4329 2764 c-42 -110 -50 -275 -19 -378 17 -52 32 -78 76 -123 l55
-58 -31 55 c-49 85 -80 157 -92 213 -13 62 -5 192 16 262 17 54 13 75 -5 29z"/>
<path d="M4880 2704 c13 -33 13 -199 0 -246 -6 -20 -42 -85 -80 -143 -38 -58
-66 -105 -61 -105 17 0 119 119 142 167 19 38 25 68 28 148 3 99 -12 205 -29
205 -6 0 -5 -11 0 -26z"/>
<path d="M4583 2340 c-1 -116 0 -121 15 -98 21 29 22 139 1 186 -13 31 -14 26
-16 -88z"/>
<path d="M2740 986 l0 -453 58 -26 c321 -143 981 -227 1782 -227 740 0 1340
79 1831 241 l36 11 6 452 c3 248 4 452 3 453 -1 1 -33 -9 -71 -23 -242 -88
-689 -172 -1150 -216 -192 -18 -1058 -18 -1250 0 -270 26 -630 79 -795 118
-136 32 -347 88 -397 105 l-53 18 0 -453z"/>
</g>
</svg>
